HIERARCHY
ROOT joint_Root
{
	OFFSET 0.0 0.0 0.0
	CHANNELS 6 Xposition Yposition Zposition Zrotation Xrotation Yrotation 
	JOINT Hips
	{
		OFFSET 4.5925 91.4895 -427.239
		CHANNELS 6 Xposition Yposition Zposition Zrotation Xrotation Yrotation 
		JOINT Spine
		{
			OFFSET 15.7357 0.0 0.0
			CHANNELS 6 Xposition Yposition Zposition Zrotation Xrotation Yrotation 
			JOINT Chest
			{
				OFFSET 8.98455 -0.406207 0.0
				CHANNELS 6 Xposition Yposition Zposition Zrotation Xrotation Yrotation 
				JOINT Neck
				{
					OFFSET 16.3773 0.0 0.0
					CHANNELS 6 Xposition Yposition Zposition Zrotation Xrotation Yrotation 
					JOINT Head
					{
						OFFSET 6.45672 0.0 0.0
						CHANNELS 6 Xposition Yposition Zposition Zrotation Xrotation Yrotation 
						End Site
						{
							OFFSET 0.0 0.0 0.0
						}
					}
				}
				JOINT Shoulder_L
				{
					OFFSET 12.9942 -0.242716 4.98039
					CHANNELS 6 Xposition Yposition Zposition Zrotation Xrotation Yrotation 
					JOINT UpperArm_L
					{
						OFFSET 5.34809 0.0 0.0
						CHANNELS 6 Xposition Yposition Zposition Zrotation Xrotation Yrotation 
						JOINT LowerArm_L
						{
							OFFSET 24.3286 1.87007e-05 0.0
							CHANNELS 6 Xposition Yposition Zposition Zrotation Xrotation Yrotation 
							JOINT Hand_L
							{
								OFFSET 22.2916 0.0 0.0
								CHANNELS 6 Xposition Yposition Zposition Zrotation Xrotation Yrotation 
								End Site
								{
									OFFSET 0.0 0.0 0.0
								}
							}
						}
					}
				}
				JOINT Shoulder_R
				{
					OFFSET 12.9945 -0.242716 -4.98039
					CHANNELS 6 Xposition Yposition Zposition Zrotation Xrotation Yrotation 
					JOINT UpperArm_R
					{
						OFFSET -5.34813 0.0 0.0
						CHANNELS 6 Xposition Yposition Zposition Zrotation Xrotation Yrotation 
						JOINT LowerArm_R
						{
							OFFSET -24.3289 0.000322201 0.0
							CHANNELS 6 Xposition Yposition Zposition Zrotation Xrotation Yrotation 
							JOINT Hand_R
							{
								OFFSET -22.2915 -0.000108084 0.0
								CHANNELS 6 Xposition Yposition Zposition Zrotation Xrotation Yrotation 
								End Site
								{
									OFFSET 0.0 0.0 0.0
								}
							}
						}
					}
				}
			}
		}
		JOINT UpperLeg_L
		{
			OFFSET -2.19248 -6.46944 0.0
			CHANNELS 6 Xposition Yposition Zposition Zrotation Xrotation Yrotation 
			JOINT LowerLeg_L
			{
				OFFSET 39.0811 0.0 -1.23785e-05
				CHANNELS 6 Xposition Yposition Zposition Zrotation Xrotation Yrotation 
				JOINT Foot_L
				{
					OFFSET 40.9854 0.0 -1.26872e-05
					CHANNELS 6 Xposition Yposition Zposition Zrotation Xrotation Yrotation 
					JOINT Toes_L
					{
						OFFSET 11.7543 0.0 0.0
						CHANNELS 6 Xposition Yposition Zposition Zrotation Xrotation Yrotation 
						End Site
						{
							OFFSET 0.0 0.0 0.0
						}
					}
				}
			}
		}
		JOINT UpperLeg_R
		{
			OFFSET -2.19251 6.46944 0.0
			CHANNELS 6 Xposition Yposition Zposition Zrotation Xrotation Yrotation 
			JOINT LowerLeg_R
			{
				OFFSET -39.0811 -0.00228153 -0.0401928
				CHANNELS 6 Xposition Yposition Zposition Zrotation Xrotation Yrotation 
				JOINT Foot_R
				{
					OFFSET -40.9854 0.0 0.0
					CHANNELS 6 Xposition Yposition Zposition Zrotation Xrotation Yrotation 
					JOINT Toes_R
					{
						OFFSET -11.7543 0.0 0.0
						CHANNELS 6 Xposition Yposition Zposition Zrotation Xrotation Yrotation 
						End Site
						{
							OFFSET 0.0 0.0 0.0
						}
					}
				}
			}
		}
	}
}
MOTION
Frames:	9
Frame Time:	0.0333333
0.000000 0.000000 0.000000 0.000000 0.000000 -0.000000 -0.023563 90.301500 -5.021730 88.815300 -4.708830 9.725160 15.735700 0.000005 -0.000001 89.255700 76.946100 -89.580200 8.984550 -0.406207 -0.000000 18.338800 -0.362494 -0.591844 16.377300 -0.000001 -0.000001 3.003390 -2.352190 0.428007 6.456720 -0.000001 -0.000000 -5.230060 -1.408530 1.382830 12.994200 -0.242716 4.980390 -91.017200 5.553350 -79.603700 5.348090 -0.000007 -0.000001 -56.426600 33.484700 -31.842800 24.328600 0.000019 0.000005 10.721400 22.663600 -26.168200 22.291600 -0.000001 0.000005 10.129800 5.206230 2.562640 12.994500 -0.242716 -4.980390 89.345100 9.232910 -85.924900 -5.348130 -0.000001 -0.000004 -60.059000 28.490600 -24.874600 -24.328900 0.000322 -0.000009 3.567950 6.445880 -29.055300 -22.291500 -0.000108 -0.000004 17.913800 5.395800 -2.801320 -2.192480 -6.469440 -0.000000 -174.443000 -13.909000 -5.871310 39.081100 -0.000007 -0.000012 -0.176837 0.251309 35.133000 40.985400 -0.000006 -0.000013 0.298093 3.628510 -69.181000 11.754300 -0.000000 0.000003 -0.000099 -0.001022 -16.616800 -2.192510 6.469440 -0.000001 176.453000 17.525800 174.818000 -39.081100 -0.002282 -0.040193 -0.112048 0.170293 34.110200 -40.985400 0.000008 0.000006 5.084770 12.251200 -69.560600 -11.754300 -0.000006 -0.000006 -0.002759 -0.037844 -18.112100
0.000000 0.000000 0.000000 0.000000 0.000000 -0.000000 -0.008606 90.303300 -5.054260 88.798700 -4.783480 9.740610 15.735700 0.000005 -0.000001 89.276300 76.937900 -89.604300 8.984550 -0.406207 -0.000000 18.355400 -0.353833 -0.600289 16.377300 -0.000001 -0.000001 2.927440 -2.337870 0.446166 6.456720 -0.000001 -0.000000 -5.321080 -1.380550 1.371850 12.994200 -0.242716 4.980390 -91.027600 5.589060 -79.564400 5.348090 -0.000007 -0.000001 -57.461600 32.119300 -30.945200 24.328600 0.000019 0.000005 11.744000 23.216900 -27.805100 22.291600 -0.000001 0.000005 10.491100 5.200410 2.708820 12.994500 -0.242716 -4.980390 89.341400 9.249730 -85.909200 -5.348130 -0.000001 -0.000004 -60.537500 27.431900 -24.491400 -24.328900 0.000322 -0.000009 4.027770 6.820630 -30.670100 -22.291500 -0.000108 -0.000004 18.378400 5.396850 -2.835370 -2.192480 -6.469440 -0.000000 -174.412000 -13.959700 -5.868660 39.081100 -0.000007 -0.000012 -0.183685 0.261012 35.136000 40.985400 -0.000006 -0.000013 0.303486 3.635930 -69.164300 11.754300 -0.000000 0.000003 -0.000101 -0.001039 -16.617400 -2.192510 6.469440 -0.000001 176.456000 17.501100 174.818000 -39.081100 -0.002282 -0.040193 -0.112797 0.171519 34.091500 -40.985400 0.000008 0.000006 5.065090 12.323200 -69.522700 -11.754300 -0.000006 -0.000006 -0.002858 -0.038984 -18.158500
0.000000 0.000000 0.000000 0.000000 0.000000 -0.000000 0.003934 90.307500 -5.099030 88.800500 -4.810110 9.728350 15.735700 0.000005 -0.000001 89.220700 76.944400 -89.563700 8.984550 -0.406207 -0.000000 18.341900 -0.379890 -0.626223 16.377300 -0.000001 -0.000001 2.891950 -2.354780 0.487656 6.456720 -0.000001 -0.000000 -5.411800 -1.374310 1.371940 12.994200 -0.242716 4.980390 -91.041600 5.627570 -79.496000 5.348090 -0.000007 -0.000001 -58.539400 30.539400 -30.089600 24.328600 0.000019 0.000005 12.385900 22.955900 -29.381900 22.291600 -0.000001 0.000005 10.854300 5.197500 2.781970 12.994500 -0.242716 -4.980390 89.338500 9.242180 -85.888000 -5.348130 -0.000001 -0.000004 -61.033300 26.340400 -24.130100 -24.328900 0.000322 -0.000009 4.502570 7.110540 -32.468900 -22.291500 -0.000108 -0.000004 18.766800 5.398500 -2.888690 -2.192480 -6.469440 -0.000000 -174.437000 -13.995200 -5.904580 39.081100 -0.000007 -0.000012 -0.178061 0.253129 35.124500 40.985400 -0.000006 -0.000013 0.316404 3.609250 -69.131900 11.754300 -0.000000 0.000003 -0.000095 -0.000985 -16.615400 -2.192510 6.469440 -0.000001 176.458000 17.529000 174.777000 -39.081100 -0.002282 -0.040193 -0.112627 0.171385 34.073400 -40.985400 0.000008 0.000006 5.028740 12.354900 -69.467100 -11.754300 -0.000006 -0.000006 -0.002722 -0.037414 -18.094600
0.000000 0.000000 0.000000 0.000000 0.000000 -0.000000 0.011446 90.306600 -5.135590 88.797800 -4.850420 9.770040 15.735700 0.000005 -0.000001 89.242600 76.934400 -89.594300 8.984550 -0.406207 -0.000000 18.362200 -0.371189 -0.644786 16.377300 -0.000001 -0.000001 2.875150 -2.373650 0.529840 6.456720 -0.000001 -0.000000 -5.481590 -1.379200 1.341730 12.994200 -0.242716 4.980390 -91.047700 5.659910 -79.494900 5.348090 -0.000007 -0.000001 -59.641100 28.739600 -29.227600 24.328600 0.000019 0.000005 14.009900 23.876400 -31.650500 22.291600 -0.000001 0.000005 11.124500 5.190300 2.961300 12.994500 -0.242716 -4.980390 89.330300 9.218890 -85.827100 -5.348130 -0.000001 -0.000004 -61.400300 25.332600 -23.818300 -24.328900 0.000322 -0.000009 5.146890 7.515960 -34.557200 -22.291500 -0.000108 -0.000004 19.010900 5.395200 -2.782330 -2.192480 -6.469440 -0.000000 -174.423000 -14.004400 -5.890180 39.081100 -0.000007 -0.000012 -0.181113 0.257380 35.133600 40.985400 -0.000006 -0.000013 0.313573 3.595880 -69.110500 11.754300 -0.000000 0.000003 -0.000099 -0.001023 -16.616800 -2.192510 6.469440 -0.000001 176.456000 17.502200 174.786000 -39.081100 -0.002282 -0.040193 -0.113663 0.172888 34.077900 -40.985400 0.000008 0.000006 5.020360 12.391300 -69.438400 -11.754300 -0.000006 -0.000006 -0.002885 -0.039290 -18.170900
0.000000 0.000000 0.000000 0.000000 0.000000 -0.000000 0.014192 90.299000 -5.170050 88.787900 -4.865110 9.814370 15.735700 0.000005 -0.000001 89.237200 76.920600 -89.599000 8.984550 -0.406207 -0.000000 18.389700 -0.374997 -0.664620 16.377300 -0.000001 -0.000001 2.862100 -2.399130 0.548800 6.456720 -0.000001 -0.000000 -5.540920 -1.386600 1.349750 12.994200 -0.242716 4.980390 -91.047900 5.650210 -79.476000 5.348090 -0.000007 -0.000001 -60.464500 27.109200 -28.609200 24.328600 0.000019 0.000005 15.601100 24.296100 -34.161700 22.291600 -0.000001 0.000005 11.581100 5.173270 3.380380 12.994500 -0.242716 -4.980390 89.321400 9.222160 -85.772900 -5.348130 -0.000001 -0.000004 -61.734600 24.259600 -23.511600 -24.328900 0.000322 -0.000009 5.938290 7.955160 -36.931700 -22.291500 -0.000108 -0.000004 19.356900 5.397100 -2.843480 -2.192480 -6.469440 -0.000000 -174.399000 -14.016900 -5.874550 39.081100 -0.000007 -0.000012 -0.181559 0.257618 35.175000 40.985400 -0.000006 -0.000013 0.326728 3.630570 -69.121000 11.754300 -0.000000 0.000003 -0.000102 -0.001050 -16.617800 -2.192510 6.469440 -0.000001 176.460000 17.470900 174.789000 -39.081100 -0.002282 -0.040193 -0.116177 0.176397 34.109000 -40.985400 0.000008 0.000006 4.995350 12.376100 -69.421100 -11.754300 -0.000006 -0.000006 -0.002830 -0.038669 -18.145700
0.000000 0.000000 0.000000 0.000000 0.000000 -0.000000 0.014772 90.295700 -5.203670 88.797100 -4.851340 9.895700 15.735700 0.000005 -0.000001 89.215100 76.889700 -89.589500 8.984550 -0.406207 -0.000000 18.451200 -0.387038 -0.687667 16.377300 -0.000001 -0.000001 2.806610 -2.408450 0.529905 6.456720 -0.000001 -0.000000 -5.542340 -1.401350 1.352900 12.994200 -0.242716 4.980390 -91.043000 5.614650 -79.459000 5.348090 -0.000007 -0.000001 -61.063800 25.561200 -28.201900 24.328600 0.000019 0.000005 17.171400 24.402000 -36.794300 22.291600 -0.000001 0.000005 11.780700 5.162620 3.639830 12.994500 -0.242716 -4.980390 89.309300 9.248200 -85.710300 -5.348130 -0.000001 -0.000004 -62.009800 23.118600 -23.262100 -24.328900 0.000322 -0.000009 6.912580 8.460630 -39.492600 -22.291500 -0.000108 -0.000004 19.780800 5.394380 -2.755760 -2.192480 -6.469440 -0.000000 -174.398000 -14.034300 -5.833600 39.081100 -0.000007 -0.000012 -0.177706 0.252001 35.191000 40.985400 -0.000006 -0.000013 0.336774 3.628000 -69.097100 11.754300 -0.000000 0.000003 -0.000097 -0.001004 -16.616100 -2.192510 6.469440 -0.000001 176.440000 17.434800 174.837000 -39.081100 -0.002282 -0.040193 -0.115650 0.175446 34.135100 -40.985400 0.000008 0.000006 5.015800 12.343800 -69.419000 -11.754300 -0.000006 -0.000006 -0.002862 -0.039032 -18.160400
0.000000 0.000000 0.000000 0.000000 0.000000 -0.000000 0.006159 90.293000 -5.251810 88.774600 -4.842190 9.974960 15.735700 0.000005 -0.000001 89.214200 76.865300 -89.587700 8.984550 -0.406207 -0.000000 18.500000 -0.388112 -0.685489 16.377300 -0.000001 -0.000001 2.794300 -2.404230 0.539353 6.456720 -0.000001 -0.000000 -5.576300 -1.384130 1.319900 12.994200 -0.242716 4.980390 -91.038200 5.574550 -79.432900 5.348090 -0.000007 -0.000001 -61.646800 23.904800 -27.861900 24.328600 0.000019 0.000005 19.012100 24.565000 -39.652500 22.291600 -0.000001 0.000005 11.992400 5.149230 3.961670 12.994500 -0.242716 -4.980390 89.305600 9.229070 -85.678700 -5.348130 -0.000001 -0.000004 -62.431800 21.797500 -22.978000 -24.328900 0.000322 -0.000009 8.030050 8.956530 -42.184900 -22.291500 -0.000108 -0.000004 20.137800 5.390850 -2.642320 -2.192480 -6.469440 -0.000000 -174.340000 -14.016700 -5.784910 39.081100 -0.000007 -0.000012 -0.183438 0.259907 35.214200 40.985400 -0.000006 -0.000013 0.337484 3.674600 -69.084300 11.754300 -0.000000 0.000003 -0.000094 -0.000974 -16.615000 -2.192510 6.469440 -0.000001 176.470000 17.440000 174.875000 -39.081100 -0.002282 -0.040193 -0.107996 0.164006 34.159500 -40.985400 0.000008 0.000006 5.149390 12.310100 -69.431000 -11.754300 -0.000006 -0.000006 -0.002850 -0.038891 -18.154700
0.000000 0.000000 0.000000 0.000000 0.000000 -0.000000 -0.000003 90.286100 -5.310140 88.791500 -4.795020 10.032500 15.735700 0.000005 -0.000001 89.169400 76.842700 -89.558000 8.984550 -0.406207 -0.000000 18.544800 -0.410444 -0.711927 16.377300 -0.000001 -0.000001 2.778090 -2.402000 0.561557 6.456720 -0.000001 -0.000000 -5.632110 -1.360280 1.323300 12.994200 -0.242716 4.980390 -91.034900 5.530100 -79.382800 5.348090 -0.000007 -0.000001 -62.468300 21.828700 -27.500000 24.328600 0.000019 0.000005 21.387600 24.821900 -43.012300 22.291600 -0.000001 0.000005 11.664100 5.125730 4.517740 12.994500 -0.242716 -4.980390 89.298100 9.231210 -85.633100 -5.348130 -0.000001 -0.000004 -62.914000 20.331300 -22.715100 -24.328900 0.000322 -0.000009 9.322520 9.419450 -45.089800 -22.291500 -0.000108 -0.000004 20.399000 5.384980 -2.455730 -2.192480 -6.469440 -0.000000 -174.372000 -13.983200 -5.814020 39.081100 -0.000007 -0.000012 -0.176488 0.249730 35.249800 40.985400 -0.000006 -0.000013 0.342797 3.640610 -69.040700 11.754300 -0.000000 0.000003 -0.000092 -0.000959 -16.614400 -2.192510 6.469440 -0.000001 176.425000 17.518300 174.886000 -39.081100 -0.002282 -0.040193 -0.116210 0.175925 34.187700 -40.985400 0.000008 0.000006 5.029070 12.344700 -69.376500 -11.754300 -0.000006 -0.000006 -0.002793 -0.038232 -18.127900
0.000000 0.000000 0.000000 0.000000 0.000000 -0.000000 -0.014673 90.281000 -5.364920 88.772500 -4.789590 10.101400 15.735700 0.000005 -0.000001 89.227700 76.825000 -89.616600 8.984550 -0.406207 -0.000000 18.580700 -0.384786 -0.716700 16.377300 -0.000001 -0.000001 2.791940 -2.400660 0.563749 6.456720 -0.000001 -0.000000 -5.721360 -1.396480 1.325630 12.994200 -0.242716 4.980390 -91.026800 5.471630 -79.354500 5.348090 -0.000007 -0.000001 -63.261000 19.753000 -27.207800 24.328600 0.000019 0.000005 23.582900 24.523900 -46.443000 22.291600 -0.000001 0.000005 11.795600 5.102070 5.065880 12.994500 -0.242716 -4.980390 89.294900 9.209430 -85.602700 -5.348130 -0.000001 -0.000004 -63.481300 18.791200 -22.379100 -24.328900 0.000322 -0.000009 10.607300 9.631390 -48.225400 -22.291500 -0.000108 -0.000004 20.807900 5.377360 -2.215660 -2.192480 -6.469440 -0.000000 -174.329000 -13.963700 -5.797460 39.081100 -0.000007 -0.000012 -0.176511 0.249434 35.285400 40.985400 -0.000006 -0.000013 0.334762 3.648900 -69.019700 11.754300 -0.000000 0.000003 -0.000099 -0.001021 -16.616700 -2.192510 6.469440 -0.000001 176.441000 17.520800 174.915000 -39.081100 -0.002282 -0.040193 -0.119016 0.179982 34.198500 -40.985400 0.000008 0.000006 4.983820 12.346200 -69.333400 -11.754300 -0.000006 -0.000006 -0.002786 -0.038153 -18.124700
